<?xml version="1.0" encoding="UTF-8" standalone="no"?>
<svg
   xmlns:dc="http://purl.org/dc/elements/1.1/"
   xmlns:cc="http://creativecommons.org/ns#"
   xmlns:rdf="http://www.w3.org/1999/02/22-rdf-syntax-ns#"
   xmlns:svg="http://www.w3.org/2000/svg"
   xmlns="http://www.w3.org/2000/svg"
   viewBox="0 0 648.33331 370.82666"
   height="370.82666"
   width="648.33331"
   xml:space="preserve"
   id="svg2"
   version="1.1"><metadata
     id="metadata8"><rdf:RDF><cc:Work
         rdf:about=""><dc:format>image/svg+xml</dc:format><dc:type
           rdf:resource="http://purl.org/dc/dcmitype/StillImage" /></cc:Work></rdf:RDF></metadata><defs
     id="defs6"><clipPath
       id="clipPath20"
       clipPathUnits="userSpaceOnUse"><path
         id="path18"
         d="M 0,0 H 4862.53 V 2781 H 0 Z" /></clipPath></defs><g
     transform="matrix(1.3333333,0,0,-1.3333333,0,370.82667)"
     id="g10"><g
       transform="scale(0.1)"
       id="g12"><g
         id="g14"><g
           clip-path="url(#clipPath20)"
           id="g16"><path
             id="path22"
             style="fill:#292e3c;fill-opacity:1;fill-rule:nonzero;stroke:none"
             d="m 4093.11,1030.12 c -0.34,23.45 -15.52,37.24 -35.17,37.24 -22.42,0 -38.28,-14.82 -42.42,-37.24 z m -34.13,70.35 c 50.34,0 77.93,-36.9 77.93,-83.45 0,-5.53 -0.69,-11.39 -1.38,-16.9 h -121.04 c 2.76,-30.698 26.21,-46.561 52.76,-46.561 17.93,0 36.21,7.933 50.35,19.32 l 17.24,-31.387 c -17.93,-15.863 -45.52,-25.172 -70.69,-25.172 -58.28,0 -94.84,42.071 -94.84,92.08 0,54.14 36.9,92.07 89.67,92.07 z m -368.16,-4.14 h 41.73 V 957.699 h 54.83 v 138.631 h 41.72 V 957.699 h 54.83 v 138.631 h 41.73 V 957.699 h 24.83 V 879.07 h -39.31 v 41.391 H 3690.82 Z M 3559,953.559 c 28.62,0 52.42,22.07 52.42,54.841 0,32.41 -23.8,54.82 -52.42,54.82 -28.62,0 -52.07,-22.41 -52.07,-54.82 0,-32.771 23.45,-54.841 52.07,-54.841 z m -0.34,146.911 c 53.79,0 96.9,-38.28 96.9,-92.07 0,-54.138 -43.11,-92.08 -96.56,-92.08 -53.45,0 -96.56,37.942 -96.56,92.08 0,53.79 43.11,92.07 96.22,92.07 z M 3348.27,953.219 c 24.14,0 44.14,19.66 44.14,54.481 0,33.45 -17.93,55.18 -43.45,55.18 -23.1,0 -44.49,-16.55 -44.49,-55.52 0,-27.239 15.18,-54.141 43.8,-54.141 z m -86.21,143.111 h 40 v -13.1 c 0,-6.55 -0.69,-12.42 -0.69,-12.42 h 0.69 c 11.38,18.96 32.76,29.66 56.56,29.66 47.59,0 77.93,-37.59 77.93,-92.07 0,-55.869 -34.14,-92.08 -80.35,-92.08 -20,0 -38.27,8.961 -50.69,24.828 h -0.69 c 0,0 1.04,-6.207 1.04,-15.168 v -74.488 h -43.8 z m -207.03,0 h 160.35 V 920.461 h -43.8 v 138.629 h -72.76 V 920.461 h -43.79 z m -187.63,68.97 h 33.45 v -40 h -33.45 z m 21.03,-135.18 c -0.34,23.45 -15.51,37.24 -35.17,37.24 -22.41,0 -38.28,-14.82 -42.41,-37.24 z m -84.48,135.18 h 33.8 v -40 h -33.8 z m 50.35,-64.83 c 50.35,0 77.93,-36.9 77.93,-83.45 0,-5.53 -0.69,-11.39 -1.38,-16.9 h -121.04 c 2.76,-30.698 26.21,-46.561 52.76,-46.561 17.93,0 36.21,7.933 50.35,19.32 l 17.24,-31.387 c -17.93,-15.863 -45.51,-25.172 -70.69,-25.172 -58.28,0 -94.83,42.071 -94.83,92.08 0,54.14 36.89,92.07 89.66,92.07 z m -178,0 c 23.79,0 50.69,-7.93 67.59,-26.21 l -19.66,-30 c -11.03,11.03 -28.27,18.96 -45.51,18.96 -32.42,0 -53.45,-24.48 -53.45,-54.48 0,-29.658 21.03,-55.181 54.82,-55.181 18.63,0 38.63,9.66 51.73,22.421 l 16.9,-31.039 c -16.56,-17.589 -44.14,-28.621 -72.42,-28.621 -58.28,0 -95.52,41.032 -95.52,92.08 0,50 37.24,92.07 95.52,92.07 z M 2473.2,958.738 c 22.76,0 35.52,14.821 35.52,35.524 0,20.338 -13.11,35.168 -35.52,35.168 h -47.59 v -70.692 z m -4.48,106.552 c 19.3,0 30.34,13.8 30.34,31.39 0,17.59 -10.69,30.34 -31.04,30.34 h -42.41 v -61.73 z m -87.6,100.01 h 87.25 c 44.49,0 75.87,-22.76 75.87,-63.1 0,-22.77 -11.04,-42.43 -29.66,-52.43 v -0.68 c 26.9,-7.94 39.66,-32.76 39.66,-57.598 0,-48.961 -39.32,-71.031 -84.49,-71.031 h -88.63 V 1165.3" /><path
             id="path24"
             style="fill:#f57c14;fill-opacity:1;fill-rule:nonzero;stroke:none"
             d="m 1736.28,738.332 c 131.91,0 275.04,-45.23 433.45,-185.59 15.87,-14.062 36.99,3.406 23.15,20.867 -155.68,196.571 -299.67,233.993 -443.26,265.633 -175.65,38.699 -266,137.539 -328.97,246.058 -12.53,21.59 -18.15,17.78 -19.27,-9.97 -1.38,-33.93 0.96,-78.861 8.56,-123.041 v 0 c -7.09,-0.328 -14.22,-0.238 -21.38,-0.238 -251.29,0 -454.997,203.709 -454.997,454.989 0,251.29 203.707,455 454.997,455 251.29,0 454.99,-203.71 454.99,-455 0,-17.88 -0.87,-35.55 -2.87,-52.89 -33.24,5.99 -98.63,6.67 -144.51,2.7 -17.26,-1.49 -14.83,-9.53 -1.78,-11.89 150.4,-27.18 253.74,-120.39 277.36,-289.54 0.54,-3.88 5.63,-5.05 7.65,-1.69 61.89,103.28 97.44,224.15 97.44,353.31 0,380.13 -308.15,688.29 -688.28,688.29 -380.13,0 -688.29,-308.16 -688.29,-688.29 0,-380.13 308.16,-688.321 688.29,-688.321 100.85,0 200.89,19.613 347.72,19.613 z m 51.24,249.898 c 30.61,-25.89 39.93,-56.671 23.73,-78.378 -9.01,-11.903 -23.6,-18.473 -41.1,-18.473 -17.18,0 -34.68,6.363 -46.84,16.961 -27.84,24.34 -36.01,63.789 -17.83,86.199 7.1,8.761 18.63,13.581 32.47,13.581 16.81,0 34.41,-7.07 49.57,-19.89 z m 141.29,65.75 c 4.49,-30.16 -5.03,-42.65 -14.61,-42.65 -10.44,0 -23.55,12.23 -39.01,36.36 -15.26,23.8 -20.85,51.13 -13.28,64.95 4.99,9.13 15.46,13.1 28.65,8.12 25.53,-9.66 35.56,-48.76 38.25,-66.78 z m 764.09,424.36 -55.39,66.63 c -5.81,6.98 -0.84,17.58 8.25,17.58 h 115.9 c 5.52,16.42 8.64,33.98 8.64,52.21 0,83.47 -62.13,155.43 -147.4,155.43 -85.28,0 -147.41,-71.96 -147.41,-155.43 0,-83.47 62.13,-154.42 147.41,-154.42 25.84,0 49.5,6.6 70,18 z m 250.68,-112.61 c 6.01,-6.66 1.07,-17.39 -7.99,-17.39 h -126.48 c -5.15,0 -10.03,2.29 -13.32,6.25 l -21.44,25.79 c -43.66,-28.31 -95.65,-44.83 -151.45,-44.83 -153.96,0 -279.21,125.25 -279.21,279.21 0,153.96 125.25,279.21 279.21,279.21 153.96,0 279.21,-125.25 279.21,-279.21 0,-55.5 -16.34,-107.22 -44.37,-150.74 z m 1168.37,515.4 h -103.21 c -7.59,0 -13.74,-6.15 -13.74,-13.74 v -505.26 c 0,-7.58 6.15,-13.73 13.74,-13.73 h 103.21 c 7.59,0 13.74,6.15 13.74,13.73 v 505.26 c 0,7.59 -6.15,13.74 -13.74,13.74 z m -173.69,0 h -115.48 c -6.04,0 -11.38,-3.92 -13.14,-9.65 l -91.38,-298.59 -100.44,298.92 c -1.87,5.57 -7.12,9.32 -13.03,9.32 h -80.59 c -5.91,0 -11.16,-3.75 -13.03,-9.32 l -100.44,-298.92 -91.38,298.59 c -1.77,5.73 -7.09,9.65 -13.14,9.65 h -115.48 c -4.41,0 -8.56,-2.11 -11.14,-5.67 -2.58,-3.55 -3.28,-8.12 -1.89,-12.27 l 169.63,-505.53 c 1.87,-5.57 7.12,-9.32 13.02,-9.32 h 91.67 c 5.9,0 11.15,3.75 13.02,9.31 l 99.45,295.35 99.46,-295.35 c 1.87,-5.56 7.12,-9.31 13.02,-9.31 h 91.67 c 5.91,0 11.15,3.75 13.02,9.32 l 169.63,505.53 c 1.4,4.15 0.69,8.72 -1.88,12.27 -2.59,3.56 -6.73,5.67 -11.15,5.67 z m -804.27,-13.74 v -505.26 c 0,-7.58 -6.15,-13.73 -13.73,-13.73 h -103.22 c -7.59,0 -13.73,6.15 -13.73,13.73 v 505.26 c 0,7.59 6.14,13.74 13.73,13.74 h 103.22 c 7.58,0 13.73,-6.15 13.73,-13.74" /></g></g></g></g></svg>